:SAMPLES-PER-SECOND 30
:FRAME-RANGE 1-2643
:FULLY-SPECIFIED
:DEGREES
1900
root  -67.2664 35.3977 23.0686 -174.44 8.87659 175.263
RightUpLeg  -26.5517 -3.30632 0.223921
RightLeg  75.5095 -3.48296 -16.4139
RightFoot  2.54122 0.43238 -3.40588
RightToes  7.56698e-010 0 -3.6325e-017
Spine  24.7413 1.28118 -6.29552
Spine1  -4.53178 -0.144207 1.39962
HEad  -9.91206 -18.7454 9.81884
LeftShoulder1  0.825041 0.643294 -22.5033
LeftArm  -15.3547 25.655 -18.1117
LeftForeArm  4.71672 -7.96032 -12.986
LeftHand  0.214968 0.638962 -5.39663
RightShoulder  3.24678 3.72296 38.9458
RightArm  15.3374 -0.26285 8.12582
RightForeArm  7.45637 33.2446 6.95777
RightHand  0.104062 5.89625 0.739029
LeftUpLeg  -37.8317 16.3075 4.8248
LeftLeg  26.8483 -2.97169 -1.27807
LeftFoot  5.38583 2.16996 -14.9139
LeftToes  1.48244e-010 1.61973e-010 3.308e-011
1901
root  -68.5505 35.1822 20.7068 -175.521 10.8654 173.508
RightUpLeg  -31.1717 -5.69116 -2.71105
RightLeg  79.8094 -1.5587 -12.5007
RightFoot  -3.16549 0.272725 -4.11165
RightToes  7.56698e-010 0 -3.6325e-017
Spine  25.7362 0.748573 -9.41153
Spine1  -6.60546 -2.11778 5.99943
HEad  -9.31951 -15.1941 9.18533
LeftShoulder1  0.960219 0.247786 -23.1923
LeftArm  -20.6064 22.2765 -18.8929
LeftForeArm  3.6824 -5.14969 -13.0696
LeftHand  0.182548 1.42878 -5.66604
RightShoulder  3.38897 4.16895 38.2113
RightArm  17.012 2.49733 6.88028
RightForeArm  1.19451 21.3732 5.70597
RightHand  0.0154783 5.31942 -0.145775
LeftUpLeg  -38.2029 18.6597 1.4109
LeftLeg  37.2718 -4.04448 -2.91729
LeftFoot  -2.56005 1.03709 -13.2609
LeftToes  1.48244e-010 1.61973e-010 3.308e-011
1902
root  -69.7811 35.2596 18.5402 -176.75 13.8496 173.044
RightUpLeg  -36.1021 -7.02615 -2.56852
RightLeg  78.0978 -1.85276 -11.9626
RightFoot  -7.10446 0.0246319 -1.96571
RightToes  7.56698e-010 0 -3.6325e-017
Spine  26.3381 -0.500125 -7.56317
Spine1  -6.04414 -2.74818 4.67155
HEad  -9.83188 -12.9692 8.80531
LeftShoulder1  1.14828 -0.405948 -23.0723
LeftArm  -21.6005 14.0926 -19.3005
LeftForeArm  6.73846 -0.856336 -13.5034
LeftHand  0.228851 1.16559 -6.55166
RightShoulder  4.01868 5.75911 37.4376
RightArm  -5.46009 3.33016 4.19551
RightForeArm  10.4231 9.88173 12.2969
RightHand  -0.0415287 3.30189 -0.794993
LeftUpLeg  -36.2177 19.8271 0.178928
LeftLeg  43.6796 -3.19065 -2.84012
LeftFoot  -7.54082 0.463261 -12.5651
LeftToes  1.48244e-010 1.61973e-010 3.308e-011
1903
root  -70.9194 35.4609 16.4625 -177.031 17.7682 174.05
RightUpLeg  -40.7304 -8.31261 1.13306
RightLeg  70.5382 -4.90033 -15.9452
RightFoot  -10.8675 -0.068579 -1.20022
RightToes  7.56698e-010 0 -3.6325e-017
Spine  26.2128 -1.07994 -4.04464
Spine1  -4.59885 -2.61529 4.40728
HEad  -10.453 -12.062 8.04249
LeftShoulder1  1.22244 -0.921641 -21.2263
LeftArm  -23.3637 6.58712 -20.6366
LeftForeArm  14.6241 -0.0107477 -12.9864
LeftHand  0.37575 -0.955444 -6.81154
RightShoulder  4.26284 6.95024 34.8781
RightArm  -13.7108 3.00601 3.5988
RightForeArm  2.31929 4.85766 13.7874
RightHand  0.0855187 2.49472 1.06046
LeftUpLeg  -36.4014 21.7211 0.209581
LeftLeg  51.2977 -1.48646 -1.51821
LeftFoot  -7.34939 0.565453 -14.8968
LeftToes  1.48244e-010 1.61973e-010 3.308e-011
1904
root  -71.899 35.4082 14.5992 -177.343 22.2376 174.836
RightUpLeg  -43.447 -9.24297 5.97705
RightLeg  58.1008 -8.23751 -14.4166
RightFoot  -10.8981 -0.0743957 0.152295
RightToes  7.56698e-010 0 -3.6325e-017
Spine  26.8864 -0.495327 -1.18636
Spine1  -4.61913 -2.07182 5.50262
HEad  -10.1437 -12.8852 7.6403
LeftShoulder1  1.18029 -1.10712 -19.0605
LeftArm  -22.5874 0.210375 -19.2525
LeftForeArm  20.0412 -2.85047 -13.0192
LeftHand  0.236938 -1.33154 -3.98608
RightShoulder  4.18349 7.38881 32.5161
RightArm  -15.2284 2.51002 2.6856
RightForeArm  2.77072 2.36451 14.0197
RightHand  0.488383 3.30503 6.2743
LeftUpLeg  -39.5396 23.0945 1.10009
LeftLeg  61.4234 -0.180944 0.241437
LeftFoot  1.71731 2.50133 -21.7155
LeftToes  1.48244e-010 1.61973e-010 3.308e-011
1905
root  -72.7403 34.9449 12.7337 -178.33 27.11 174.609
RightUpLeg  -44.2283 -10.4563 11.2671
RightLeg  44.4209 -8.37167 -9.00796
RightFoot  -7.48239 0.292193 -10.1334
RightToes  7.56698e-010 0 -3.6325e-017
Spine  27.5209 -0.114287 1.03588
Spine1  -4.68484 -1.50639 3.96344
HEad  -9.25506 -13.7689 7.5742
LeftShoulder1  1.05834 -1.09951 -16.2394
LeftArm  -20.7443 -3.64152 -14.6778
LeftForeArm  18.0553 -9.348 -11.6721
LeftHand  0.144763 -1.24436 -2.42753
RightShoulder  3.82716 7.1178 30.1168
RightArm  -13.2399 2.17406 2.41778
RightForeArm  13.4358 2.5403 13.678
RightHand  0.569025 5.60307 5.67192
LeftUpLeg  -42.5635 21.9276 3.42066
LeftLeg  70.6277 -2.30307 -6.45403
LeftFoot  15.0894 4.14904 -17.9428
LeftToes  1.48244e-010 1.61973e-010 3.308e-011
1906
root  -73.5276 34.0003 10.7211 -179.782 32.3335 174.2
RightUpLeg  -45.898 -10.7188 14.8411
RightLeg  45.5215 -13.5609 -14.6686
RightFoot  -9.5932 0.282222 -22.3742
RightToes  7.56698e-010 0 -3.6325e-017
Spine  29.3249 0.521749 2.65702
Spine1  -5.0678 -0.945005 2.75831
HEad  -8.66588 -14.2951 7.46574
LeftShoulder1  0.796429 -0.599229 -12.31
LeftArm  -17.8006 -6.31107 -8.85791
LeftForeArm  11.0254 -15.5712 -8.80808
LeftHand  0.120756 -1.16128 -2.03926
RightShoulder  2.8881 5.36259 26.5671
RightArm  -12.1418 1.88703 1.84326
RightForeArm  20.3686 6.63797 12.1713
RightHand  0.467829 6.11164 4.37491
LeftUpLeg  -43.6622 19.392 7.98206
LeftLeg  76.343 0.224453 2.34654
LeftFoot  15.2497 2.53328 -11.0925
LeftToes  1.48244e-010 1.61973e-010 3.308e-011
1907
root  -74.3497 33.1994 8.96145 176.578 37.022 171.24
RightUpLeg  -47.2895 -4.41395 8.65453
RightLeg  55.9436 -11.8039 -18.4778
RightFoot  -13.0864 -0.343922 -16.6782
RightToes  7.56698e-010 0 -3.6325e-017
Spine  32.9373 1.1811 0.868122
Spine1  -7.84382 -0.110043 0.880992
HEad  -9.75558 -14.4332 7.90762
LeftShoulder1  0.546617 -0.266771 -6.83619
LeftArm  -19.3324 -8.28494 -2.1549
LeftForeArm  6.32282 -18.8291 -6.72448
LeftHand  0.16165 -1.29976 -2.69629
RightShoulder  1.695 2.60773 21.4841
RightArm  -10.1026 1.14416 0.980012
RightForeArm  6.15082 13.3681 9.94564
RightHand  0.387249 5.17572 3.938
LeftUpLeg  -43.2781 15.6799 12.0771
LeftLeg  74.4107 0.611832 3.61158
LeftFoot  9.73718 0.898145 -5.14595
LeftToes  1.48244e-010 1.61973e-010 3.308e-011
1908
root  -75.0356 32.8109 7.32747 176.105 41.9319 171.041
RightUpLeg  -48.4007 -1.66136 6.93102
RightLeg  60.7041 -9.70754 -18.5515
RightFoot  -14.9056 -0.587799 -15.5609
RightToes  7.56698e-010 0 -3.6325e-017
Spine  34.6549 1.76736 -0.893174
Spine1  -7.2733 0.41694 0.0546344
HEad  -14.9488 -13.0573 8.61883
LeftShoulder1  0.362541 0.141921 -2.64795
LeftArm  -25.7698 -6.28633 6.40284
LeftForeArm  4.73993 -21.5009 -5.14306
LeftHand  0.160114 -1.27594 -2.68147
RightShoulder  1.09201 1.34627 15.841
RightArm  -17.3642 2.17468 -1.15169
RightForeArm  1.8804 15.425 8.3366
RightHand  0.273984 4.21992 3.02952
LeftUpLeg  -41.7669 12.4008 18.4368
LeftLeg  62.0437 -2.90658 -5.35366
LeftFoot  4.84272 1.0461 -7.55801
LeftToes  1.48244e-010 1.61973e-010 3.308e-011
1909
root  -75.6892 32.5523 5.93079 178.207 47.0629 170.943
RightUpLeg  -51.5575 -1.33261 6.03547
RightLeg  62.9014 -6.78321 -14.6851
RightFoot  -16.5189 -0.737063 -13.7651
RightToes  7.56698e-010 0 -3.6325e-017
Spine  35.4682 3.26572 -4.64114
Spine1  -8.34317 0.532971 1.06298
HEad  -17.1217 -10.8905 10.7853
LeftShoulder1  0.173885 0.879688 2.07975
LeftArm  -32.4145 -2.79939 13.6322
LeftForeArm  7.12932 -22.5209 -4.68452
LeftHand  0.0421823 -0.240685 -0.849748
RightShoulder  0.88982 1.48029 10.6687
RightArm  -26.7858 2.16527 -4.2095
RightForeArm  3.32097 12.3553 8.78781
RightHand  0.180715 3.47722 2.11799
LeftUpLeg  -39.5526 9.88211 23.3351
LeftLeg  42.8132 -7.88862 -7.38769
LeftFoot  2.18353 2.10985 -17.7832
LeftToes  1.48244e-010 1.61973e-010 3.308e-011
1910
root  -76.5006 32.0202 4.46006 179.543 51.9535 170.106
RightUpLeg  -55.9312 -2.58244 4.55601
RightLeg  66.5149 -3.4776 -9.42203
RightFoot  -17.705 -0.772726 -11.7055
RightToes  7.56698e-010 0 -3.6325e-017
Spine  36.0322 3.46625 -7.27481
Spine1  -9.21599 0.387865 -1.10955
HEad  -18.4796 -8.65171 12.7766
LeftShoulder1  0.073209 1.31255 5.83287
LeftArm  -38.9733 -0.596504 20.2106
LeftForeArm  8.94715 -21.5541 -4.66939
LeftHand  0.0285565 -0.372847 -0.538689
RightShoulder  0.593643 0.918622 5.68034
RightArm  -31.3634 1.1856 -6.31101
RightForeArm  4.09035 7.5113 9.00047
RightHand  0.227737 3.35636 2.7801
LeftUpLeg  -37.5328 5.31722 26.2852
LeftLeg  29.078 -12.1068 -6.87692
LeftFoot  3.98876 2.44738 -18.2332
LeftToes  1.48244e-010 1.61973e-010 3.308e-011
1911
root  -77.4013 31.3686 2.91399 179.456 57.103 169.299
RightUpLeg  -59.4119 -4.25182 4.11121
RightLeg  70.037 -2.41113 -8.19746
RightFoot  -18.9971 -0.790066 -9.86311
RightToes  7.56698e-010 0 -3.6325e-017
Spine  37.2786 3.51165 -8.42357
Spine1  -9.52855 0.68371 -3.55678
HEad  -18.708 -7.07983 12.1775
LeftShoulder1  0.0255341 1.88952 7.84569
LeftArm  -44.4625 -1.29824 23.3621
LeftForeArm  10.2816 -19.8124 -4.79759
LeftHand  0.0250242 -0.261404 -0.488893
RightShoulder  0.203105 -1.25013 0.644609
RightArm  -30.7725 -0.87533 -7.14495
RightForeArm  3.20581 3.71424 8.48979
RightHand  0.313423 3.74424 3.72197
LeftUpLeg  -37.1499 1.54542 28.5056
LeftLeg  30.9594 -6.00266 -3.53337
LeftFoot  -5.08476 1.96266 -34.3694
LeftToes  1.48244e-010 1.61973e-010 3.308e-011
